<?xml version="1.0" standalone="no"?><!DOCTYPE svg PUBLIC "-//W3C//DTD SVG 1.1//EN" "http://www.w3.org/Graphics/SVG/1.1/DTD/svg11.dtd"><svg t="1572519739177" class="icon" viewBox="0 0 1024 1024" version="1.1" xmlns="http://www.w3.org/2000/svg" p-id="1833" width="16" height="16" xmlns:xlink="http://www.w3.org/1999/xlink"><defs><style type="text/css"></style></defs><path d="M164.3 206.4c-29.8 0-54 24.2-54 54s24.2 54 54 54 54-24.2 54-54-24.2-54-54-54z m188.9 94h525c20.7 0 37.5-17.9 37.5-40s-16.8-40-37.5-40h-525c-20.7 0-37.5 17.9-37.5 40s16.8 40 37.5 40zM164.3 459.2c-29.8 0-54 24.2-54 54s24.2 54 54 54 54-24.2 54-54-24.2-54-54-54z m713.9 14h-525c-20.7 0-37.5 17.9-37.5 40s16.8 40 37.5 40h525c20.7 0 37.5-17.9 37.5-40s-16.8-40-37.5-40zM164.3 712c-29.8 0-54 24.2-54 54s24.2 54 54 54 54-24.2 54-54-24.2-54-54-54z m713.9 14h-525c-20.7 0-37.5 17.9-37.5 40s16.8 40 37.5 40h525c20.7 0 37.5-17.9 37.5-40s-16.8-40-37.5-40z" fill="#ffffff" p-id="1834"></path></svg>